<svg id="Layer_1" data-name="Layer 1" xmlns="http://www.w3.org/2000/svg" viewBox="0 0 108.36 81.77"><defs><style>.cls-1{fill:#231f20;opacity:0.51;}.cls-2{fill:#ced8d7;}</style></defs><title>cloud</title><path class="cls-1" d="M101,40.78l-.23-.24a19.13,19.13,0,0,0-16.35-26,19.18,19.18,0,0,0-23.19-4.48A22.72,22.72,0,0,0,22,25.71v.12A22.72,22.72,0,0,0,26.8,71a22.16,22.16,0,0,0,5.45-1.27,22.72,22.72,0,0,0,31.8,4.53h0a21.65,21.65,0,0,0,3.21-2.92A22.74,22.74,0,0,0,101,40.78Z"/><path class="cls-2" d="M100,40.78l-.23-.23A18.5,18.5,0,0,0,101,33.81a18.8,18.8,0,0,0-17.28-18.7,18.75,18.75,0,0,0-22.7-4.39A22.25,22.25,0,0,0,22.65,26v.11a22.25,22.25,0,0,0,4.72,44.25,22.68,22.68,0,0,0,5.34-1.25,22.25,22.25,0,0,0,31.14,4.44h0A21.85,21.85,0,0,0,67,70.71a22.27,22.27,0,1,0,33-29.93Z"/></svg>