<svg xmlns="http://www.w3.org/2000/svg" viewBox="0 0 144.86 284.15"><defs><style>.cls-1{isolation:isolate;}.cls-2{opacity:0.78;mix-blend-mode:color-dodge;}.cls-3{fill:#0dd3d3;}</style></defs><title>rain</title><g class="cls-1"><g id="Layer_1" data-name="Layer 1"><g class="cls-2"><path d="M59.44,177.61s-13.29,16.79,0,19S59.44,177.61,59.44,177.61Z" transform="translate(0.01)"/></g><path class="cls-3" d="M58.44,176.61s-13.29,16.79,0,19S58.44,176.61,58.44,176.61Z" transform="translate(0.01)"/><g class="cls-2"><path d="M39.71,188.51s-20.59,26,0,29.38S39.71,188.51,39.71,188.51Z" transform="translate(0.01)"/></g><path class="cls-3" d="M38.71,187.51s-20.59,26,0,29.38S38.71,187.51,38.71,187.51Z" transform="translate(0.01)"/><g class="cls-2"><path d="M65.34,201.82s-13.28,16.79,0,19S65.34,201.82,65.34,201.82Z" transform="translate(0.01)"/></g><path class="cls-3" d="M64.34,200.82s-13.28,16.79,0,19S64.34,200.82,64.34,200.82Z" transform="translate(0.01)"/><g class="cls-2"><path d="M122.21,166.09s-20.59,26,0,29.38S122.21,166.09,122.21,166.09Z" transform="translate(0.01)"/></g><path class="cls-3" d="M121.21,165.09s-20.59,26,0,29.38S121.21,165.09,121.21,165.09Z" transform="translate(0.01)"/><g class="cls-2"><path d="M89,177.61s-20.58,26,0,29.38S89,177.61,89,177.61Z" transform="translate(0.01)"/></g><path class="cls-3" d="M88,176.61s-20.58,26,0,29.38S88,176.61,88,176.61Z" transform="translate(0.01)"/><g class="cls-2"><path d="M83.12,209.23s-13.28,16.78,0,19S83.12,209.23,83.12,209.23Z" transform="translate(0.01)"/></g><path class="cls-3" d="M82.12,208.23s-13.28,16.78,0,19S82.12,208.23,82.12,208.23Z" transform="translate(0.01)"/><g class="cls-2"><path d="M127,228.93s-13,16.48,0,18.61S127,228.93,127,228.93Z" transform="translate(0.01)"/></g><path class="cls-3" d="M126,227.93s-13,16.48,0,18.61S126,227.93,126,227.93Z" transform="translate(0.01)"/><g class="cls-2"><path d="M99.52,228.93s-20.58,26,0,29.38S99.52,228.93,99.52,228.93Z" transform="translate(0.01)"/></g><path class="cls-3" d="M98.52,227.93s-20.58,26,0,29.38S98.52,227.93,98.52,227.93Z" transform="translate(0.01)"/><g class="cls-2"><path d="M48.89,228.93s-20.58,26,0,29.38S48.89,228.93,48.89,228.93Z" transform="translate(0.01)"/></g><path class="cls-3" d="M47.89,227.93s-20.58,26,0,29.38S47.89,227.93,47.89,227.93Z" transform="translate(0.01)"/><g class="cls-2"><path d="M65.79,201.74s-4.58,5.78,0,6.53S65.79,201.74,65.79,201.74Z" transform="translate(0.01)"/></g><path class="cls-3" d="M64.79,200.74s-4.58,5.78,0,6.53S64.79,200.74,64.79,200.74Z" transform="translate(0.01)"/><g class="cls-2"><path d="M56.2,269.34s-10.29,13,0,14.69S56.2,269.34,56.2,269.34Z" transform="translate(0.01)"/></g><path class="cls-3" d="M55.2,268.34s-10.29,13,0,14.69S55.2,268.34,55.2,268.34Z" transform="translate(0.01)"/><g class="cls-2"><path d="M73.72,242.17s-13.28,16.79,0,19S73.72,242.17,73.72,242.17Z" transform="translate(0.01)"/></g><path class="cls-3" d="M72.72,241.17s-13.28,16.79,0,19S72.72,241.17,72.72,241.17Z" transform="translate(0.01)"/><g class="cls-2"><path d="M115.37,265.68s-10.29,14.5,0,16.38S115.37,265.68,115.37,265.68Z" transform="translate(0.01)"/></g><path class="cls-3" d="M114.37,264.68s-10.29,14.5,0,16.38S114.37,264.68,114.37,264.68Z" transform="translate(0.01)"/><g class="cls-2"><path d="M113,197.51s-13.28,16.79,0,19S113,197.51,113,197.51Z" transform="translate(0.01)"/></g><path class="cls-3" d="M112,196.51s-13.28,16.79,0,19S112,196.51,112,196.51Z" transform="translate(0.01)"/><g class="cls-2"><path d="M101.82,146s-20.59,26,0,29.38S101.82,146,101.82,146Z" transform="translate(0.01)"/></g><path class="cls-3" d="M100.82,145s-20.59,26,0,29.38S100.82,145,100.82,145Z" transform="translate(0.01)"/><g class="cls-2"><path d="M138.82,168.91s-12.09,15.27,0,17.25S138.82,168.91,138.82,168.91Z" transform="translate(0.01)"/></g><path class="cls-3" d="M137.82,167.91s-12.09,15.27,0,17.25S137.82,167.91,137.82,167.91Z" transform="translate(0.01)"/><g class="cls-2"><path d="M71.31,151.92s-17,21.48,0,24.27S71.31,151.92,71.31,151.92Z" transform="translate(0.01)"/></g><path class="cls-3" d="M70.31,150.92s-17,21.48,0,24.27S70.31,150.92,70.31,150.92Z" transform="translate(0.01)"/><g class="cls-2"><path d="M53.53,153.72s-7.63,9.65,0,10.89S53.53,153.72,53.53,153.72Z" transform="translate(0.01)"/></g><path class="cls-3" d="M52.53,152.72s-7.63,9.65,0,10.89S52.53,152.72,52.53,152.72Z" transform="translate(0.01)"/><g class="cls-2"><path d="M44.41,167.19s-7.31,9.24,0,10.44S44.41,167.19,44.41,167.19Z" transform="translate(0.01)"/></g><path class="cls-3" d="M43.41,166.19s-7.31,9.24,0,10.44S43.41,166.19,43.41,166.19Z" transform="translate(0.01)"/><g class="cls-2"><path d="M59.44,32.62s-13.29,16.79,0,19S59.44,32.62,59.44,32.62Z" transform="translate(0.01)"/></g><path class="cls-3" d="M58.44,31.62s-13.29,16.79,0,19S58.44,31.62,58.44,31.62Z" transform="translate(0.01)"/><g class="cls-2"><path d="M39.71,43.51s-20.59,26,0,29.39S39.71,43.51,39.71,43.51Z" transform="translate(0.01)"/></g><path class="cls-3" d="M38.71,42.51s-20.59,26,0,29.39S38.71,42.51,38.71,42.51Z" transform="translate(0.01)"/><g class="cls-2"><path d="M65.34,56.83s-13.28,16.79,0,19S65.34,56.83,65.34,56.83Z" transform="translate(0.01)"/></g><path class="cls-3" d="M64.34,55.83s-13.28,16.79,0,19S64.34,55.83,64.34,55.83Z" transform="translate(0.01)"/><g class="cls-2"><path d="M122.21,21.1s-20.59,26,0,29.38S122.21,21.1,122.21,21.1Z" transform="translate(0.01)"/></g><path class="cls-3" d="M121.21,20.1s-20.59,26,0,29.38S121.21,20.1,121.21,20.1Z" transform="translate(0.01)"/><g class="cls-2"><path d="M89,32.62S68.43,58.62,89,62,89,32.62,89,32.62Z" transform="translate(0.01)"/></g><path class="cls-3" d="M88,31.62S67.43,57.62,88,61,88,31.62,88,31.62Z" transform="translate(0.01)"/><g class="cls-2"><path d="M83.12,64.24s-13.23,16.76,0,19S83.12,64.24,83.12,64.24Z" transform="translate(0.01)"/></g><path class="cls-3" d="M82.12,63.24s-13.23,16.76,0,19S82.12,63.24,82.12,63.24Z" transform="translate(0.01)"/><g class="cls-2"><path d="M127,83.94s-13,16.48,0,18.61S127,83.94,127,83.94Z" transform="translate(0.01)"/></g><path class="cls-3" d="M126,82.94s-13,16.48,0,18.61S126,82.94,126,82.94Z" transform="translate(0.01)"/><g class="cls-2"><path d="M99.52,83.94s-20.58,26,0,29.38S99.52,83.94,99.52,83.94Z" transform="translate(0.01)"/></g><path class="cls-3" d="M98.52,82.94s-20.58,26,0,29.38S98.52,82.94,98.52,82.94Z" transform="translate(0.01)"/><g class="cls-2"><path d="M48.89,83.94s-20.58,26,0,29.38S48.89,83.94,48.89,83.94Z" transform="translate(0.01)"/></g><path class="cls-3" d="M47.89,82.94s-20.58,26,0,29.38S47.89,82.94,47.89,82.94Z" transform="translate(0.01)"/><g class="cls-2"><path d="M65.79,56.75s-4.58,5.78,0,6.53S65.79,56.75,65.79,56.75Z" transform="translate(0.01)"/></g><path class="cls-3" d="M64.79,55.75s-4.58,5.78,0,6.53S64.79,55.75,64.79,55.75Z" transform="translate(0.01)"/><g class="cls-2"><path d="M56.2,124.36s-10.29,13,0,14.68S56.2,124.36,56.2,124.36Z" transform="translate(0.01)"/></g><path class="cls-3" d="M55.2,123.36s-10.29,13,0,14.68S55.2,123.36,55.2,123.36Z" transform="translate(0.01)"/><g class="cls-2"><path d="M73.72,97.18s-13.28,16.79,0,19S73.72,97.18,73.72,97.18Z" transform="translate(0.01)"/></g><path class="cls-3" d="M72.72,96.18s-13.28,16.79,0,19S72.72,96.18,72.72,96.18Z" transform="translate(0.01)"/><g class="cls-2"><path d="M83.12,119.51s-17,21.49,0,24.27S83.12,119.51,83.12,119.51Z" transform="translate(0.01)"/></g><path class="cls-3" d="M82.12,118.51s-17,21.49,0,24.27S82.12,118.51,82.12,118.51Z" transform="translate(0.01)"/><g class="cls-2"><path d="M115.37,120.7s-10.29,14.5,0,16.38S115.37,120.7,115.37,120.7Z" transform="translate(0.01)"/></g><path class="cls-3" d="M114.37,119.7s-10.29,14.5,0,16.38S114.37,119.7,114.37,119.7Z" transform="translate(0.01)"/><g class="cls-2"><path d="M135.7,114.14s-20.58,26,0,29.38S135.7,114.14,135.7,114.14Z" transform="translate(0.01)"/></g><path class="cls-3" d="M134.7,113.14s-20.58,26,0,29.38S134.7,113.14,134.7,113.14Z" transform="translate(0.01)"/><g class="cls-2"><path d="M113,52.51s-13.28,16.79,0,19S113,52.51,113,52.51Z" transform="translate(0.01)"/></g><path class="cls-3" d="M112,51.51s-13.28,16.79,0,19S112,51.51,112,51.51Z" transform="translate(0.01)"/><g class="cls-2"><path d="M101.82,1s-20.59,26,0,29.38S101.82,1,101.82,1Z" transform="translate(0.01)"/></g><path class="cls-3" d="M100.82,0s-20.59,26,0,29.38S100.82,0,100.82,0Z" transform="translate(0.01)"/><g class="cls-2"><path d="M138.82,23.93s-12.09,15.26,0,17.24S138.82,23.93,138.82,23.93Z" transform="translate(0.01)"/></g><path class="cls-3" d="M137.82,22.93s-12.09,15.26,0,17.24S137.82,22.93,137.82,22.93Z" transform="translate(0.01)"/><g class="cls-2"><path d="M71.31,6.93s-17,21.49,0,24.27S71.31,6.93,71.31,6.93Z" transform="translate(0.01)"/></g><path class="cls-3" d="M70.31,5.93s-17,21.49,0,24.27S70.31,5.93,70.31,5.93Z" transform="translate(0.01)"/><g class="cls-2"><path d="M6.89,156.57s-13.28,16.79,0,19S6.89,156.57,6.89,156.57Z" transform="translate(0.01)"/></g><path class="cls-3" d="M5.89,155.57s-13.28,16.79,0,19S5.89,155.57,5.89,155.57Z" transform="translate(0.01)"/><g class="cls-2"><path d="M30.55,132.36s-20.58,26,0,29.38S30.55,132.36,30.55,132.36Z" transform="translate(0.01)"/></g><path class="cls-3" d="M29.55,131.36s-20.58,26,0,29.38S29.55,131.36,29.55,131.36Z" transform="translate(0.01)"/><g class="cls-2"><path d="M24.68,164s-13.28,16.78,0,19S24.68,164,24.68,164Z" transform="translate(0.01)"/></g><path class="cls-3" d="M23.68,163s-13.28,16.78,0,19S23.68,163,23.68,163Z" transform="translate(0.01)"/><g class="cls-2"><path d="M15.28,196.92s-13.28,16.79,0,19S15.28,196.92,15.28,196.92Z" transform="translate(0.01)"/></g><path class="cls-3" d="M14.28,195.92s-13.28,16.79,0,19S14.28,195.92,14.28,195.92Z" transform="translate(0.01)"/><g class="cls-2"><path d="M24.68,219.26s-17,21.49,0,24.27S24.68,219.26,24.68,219.26Z" transform="translate(0.01)"/></g><path class="cls-3" d="M23.68,218.26s-17,21.49,0,24.27S23.68,218.26,23.68,218.26Z" transform="translate(0.01)"/><g class="cls-2"><path d="M12.89,106.67s-17,21.48,0,24.27S12.89,106.67,12.89,106.67Z" transform="translate(0.01)"/></g><path class="cls-3" d="M11.89,105.67s-17,21.48,0,24.27S11.89,105.67,11.89,105.67Z" transform="translate(0.01)"/><g class="cls-2"><path d="M6.89,11.58s-13.28,16.79,0,19S6.89,11.58,6.89,11.58Z" transform="translate(0.01)"/></g><path class="cls-3" d="M5.89,10.58s-13.28,16.79,0,19S5.89,10.58,5.89,10.58Z" transform="translate(0.01)"/><g class="cls-2"><path d="M24.68,19s-13.28,16.79,0,19S24.68,19,24.68,19Z" transform="translate(0.01)"/></g><path class="cls-3" d="M23.68,18s-13.28,16.79,0,19S23.68,18,23.68,18Z" transform="translate(0.01)"/><g class="cls-2"><path d="M15.28,51.93s-13.28,16.79,0,19S15.28,51.93,15.28,51.93Z" transform="translate(0.01)"/></g><path class="cls-3" d="M14.28,50.93s-13.28,16.79,0,19S14.28,50.93,14.28,50.93Z" transform="translate(0.01)"/><g class="cls-2"><path d="M24.68,74.26s-17,21.49,0,24.27S24.68,74.26,24.68,74.26Z" transform="translate(0.01)"/></g><path class="cls-3" d="M23.68,73.26s-17,21.49,0,24.27S23.68,73.26,23.68,73.26Z" transform="translate(0.01)"/><g class="cls-2"><path d="M53.53,8.74s-7.63,9.64,0,10.89S53.53,8.74,53.53,8.74Z" transform="translate(0.01)"/></g><path class="cls-3" d="M52.53,7.74s-7.63,9.64,0,10.89S52.53,7.74,52.53,7.74Z" transform="translate(0.01)"/><g class="cls-2"><path d="M44.41,22.2s-7.31,9.24,0,10.44S44.41,22.2,44.41,22.2Z" transform="translate(0.01)"/></g><path class="cls-3" d="M43.41,21.2s-7.31,9.24,0,10.44S43.41,21.2,43.41,21.2Z" transform="translate(0.01)"/></g></g></svg>