<svg xmlns="http://www.w3.org/2000/svg" viewBox="0 0 118.29 118.23"><defs><style>.cls-1{isolation:isolate;}.cls-2{opacity:0.78;mix-blend-mode:color-dodge;}.cls-3{fill:#ffd710;}</style></defs><title>sun</title><g class="cls-1"><g id="Layer_1" data-name="Layer 1"><g class="cls-2"><path d="M86.64,94a39.33,39.33,0,0,1,15.54,7.63,61.59,61.59,0,0,0-3.41-25.71c.08.75.84,9.07-5.63,14.66A16.29,16.29,0,0,1,86.64,94Z"/></g><path class="cls-3" d="M85.64,93a39.33,39.33,0,0,1,15.54,7.63,61.59,61.59,0,0,0-3.41-25.71c.08.75.84,9.07-5.63,14.66A16.29,16.29,0,0,1,85.64,93Z"/><g class="cls-2"><path d="M70.39,101.94a39.52,39.52,0,0,1,5.29,4.89,39,39,0,0,1,5.79,8.4,62.31,62.31,0,0,0,4.27-9.77,61.85,61.85,0,0,0,3.08-15.11c-.23.72-2.93,8.64-11.11,11.11A16.2,16.2,0,0,1,70.39,101.94Z"/></g><path class="cls-3" d="M69.39,100.94a39.52,39.52,0,0,1,5.29,4.89,39,39,0,0,1,5.79,8.4,62.31,62.31,0,0,0,4.27-9.77,61.85,61.85,0,0,0,3.08-15.11c-.23.72-2.93,8.64-11.11,11.11A16.2,16.2,0,0,1,69.39,100.94Z"/><g class="cls-2"><path d="M52.32,102.58a39.51,39.51,0,0,1,2.86,6.61,40.06,40.06,0,0,1,1.88,10A60.85,60.85,0,0,0,64.93,112a61.85,61.85,0,0,0,9-12.55c-.51.56-6.18,6.7-14.66,5.63A16.2,16.2,0,0,1,52.32,102.58Z"/></g><path class="cls-3" d="M51.32,101.58a39.51,39.51,0,0,1,2.86,6.61,40.06,40.06,0,0,1,1.88,10A60.85,60.85,0,0,0,63.93,111a61.85,61.85,0,0,0,9-12.55c-.51.56-6.18,6.7-14.66,5.63A16.2,16.2,0,0,1,51.32,101.58Z"/><g class="cls-2"><path d="M35.55,95.81a41.22,41.22,0,0,1-.09,7.2,39.41,39.41,0,0,1-2.37,9.93,61.61,61.61,0,0,0,23.4-11.19c-.69.31-8.37,3.61-15.68-.81A16.31,16.31,0,0,1,35.55,95.81Z"/></g><path class="cls-3" d="M34.55,94.81a41.22,41.22,0,0,1-.09,7.2,39.41,39.41,0,0,1-2.37,9.93,61.61,61.61,0,0,0,23.4-11.19c-.69.31-8.37,3.61-15.68-.81A16.31,16.31,0,0,1,34.55,94.81Z"/><g class="cls-2"><path d="M23,82.81a39.06,39.06,0,0,1-3,6.54,39.46,39.46,0,0,1-6.2,8.11,61.94,61.94,0,0,0,25.93-.7c-.76,0-9.11-.11-14-7.13A16.57,16.57,0,0,1,23,82.81Z"/></g><path class="cls-3" d="M22,81.81a39.06,39.06,0,0,1-3,6.54,39.46,39.46,0,0,1-6.2,8.11,61.94,61.94,0,0,0,25.93-.7c-.76,0-9.11-.11-14-7.13A16.57,16.57,0,0,1,22,81.81Z"/><g class="cls-2"><path d="M16.79,65.82a38.19,38.19,0,0,1-5.41,4.75,39.43,39.43,0,0,1-9,4.89,61.43,61.43,0,0,0,24,9.9c-.69-.3-8.28-3.81-9.89-12.2A16.54,16.54,0,0,1,16.79,65.82Z"/></g><path class="cls-3" d="M15.79,64.82a38.19,38.19,0,0,1-5.41,4.75,39.43,39.43,0,0,1-9,4.89,61.43,61.43,0,0,0,24,9.9c-.69-.3-8.28-3.81-9.89-12.2A16.54,16.54,0,0,1,15.79,64.82Z"/><g class="cls-2"><path d="M18.05,47.79a39.31,39.31,0,0,1-6.87,2.13A39,39,0,0,1,1,50.74a61.78,61.78,0,0,0,17.87,18.8c-.51-.56-6-6.85-4.07-15.17A16.31,16.31,0,0,1,18.05,47.79Z"/></g><path class="cls-3" d="M17.05,46.79a39.31,39.31,0,0,1-6.87,2.13A39,39,0,0,1,0,49.74a61.78,61.78,0,0,0,17.87,18.8c-.51-.56-6-6.85-4.07-15.17A16.31,16.31,0,0,1,17.05,46.79Z"/><g class="cls-2"><path d="M26.53,31.82A40,40,0,0,1,19.38,31a38.85,38.85,0,0,1-9.63-3.39A61.78,61.78,0,0,0,12,38a62.62,62.62,0,0,0,6.4,14c-.24-.71-2.71-8.7,2.45-15.51A16.44,16.44,0,0,1,26.53,31.82Z"/></g><path class="cls-3" d="M25.53,30.82A40,40,0,0,1,18.38,30a38.85,38.85,0,0,1-9.63-3.39A61.78,61.78,0,0,0,11,37a62.62,62.62,0,0,0,6.4,14c-.24-.71-2.71-8.7,2.45-15.51A16.44,16.44,0,0,1,25.53,30.82Z"/><g class="cls-2"><path d="M40.77,20.68A40.24,40.24,0,0,1,34.58,17a39.65,39.65,0,0,1-7.41-7A60.62,60.62,0,0,0,25,20.42a61.68,61.68,0,0,0,.16,15.42c.07-.75,1.06-9.05,8.55-13.17A16.26,16.26,0,0,1,40.77,20.68Z"/></g><path class="cls-3" d="M39.77,19.68A40.24,40.24,0,0,1,33.58,16a39.65,39.65,0,0,1-7.41-7A60.62,60.62,0,0,0,24,19.42a61.68,61.68,0,0,0,.16,15.42c.07-.75,1.06-9.05,8.55-13.17A16.26,16.26,0,0,1,39.77,19.68Z"/><g class="cls-2"><path d="M58.31,16.3a40.1,40.1,0,0,1-4.13-5.88A39.7,39.7,0,0,1,50.25,1,61.89,61.89,0,0,0,37.88,23.8c.38-.66,4.65-7.84,13.17-8.56A16.35,16.35,0,0,1,58.31,16.3Z"/></g><path class="cls-3" d="M57.31,15.3a40.1,40.1,0,0,1-4.13-5.88A39.7,39.7,0,0,1,49.25,0,61.89,61.89,0,0,0,36.88,22.8c.38-.66,4.65-7.84,13.17-8.56A16.35,16.35,0,0,1,57.31,15.3Z"/><g class="cls-2"><path d="M76.12,19.42A39.36,39.36,0,0,1,75,2.16a60.83,60.83,0,0,0-9.19,5.38A61.84,61.84,0,0,0,54.4,18c.61-.44,7.44-5.26,15.51-2.46A16.26,16.26,0,0,1,76.12,19.42Z"/></g><path class="cls-3" d="M75.12,18.42A39.36,39.36,0,0,1,74,1.16a60.83,60.83,0,0,0-9.19,5.38A61.84,61.84,0,0,0,53.4,17c.61-.44,7.44-5.26,15.51-2.46A16.26,16.26,0,0,1,75.12,18.42Z"/><g class="cls-2"><path d="M91.12,29.53a40.76,40.76,0,0,1,1.58-7,39.78,39.78,0,0,1,4.38-9.22,61.41,61.41,0,0,0-25.21,6.11c.74-.16,8.93-1.79,15.17,4.06A16.41,16.41,0,0,1,91.12,29.53Z"/></g><path class="cls-3" d="M90.12,28.53a40.76,40.76,0,0,1,1.58-7,39.78,39.78,0,0,1,4.38-9.22,61.41,61.41,0,0,0-25.21,6.11c.74-.16,8.93-1.79,15.17,4.06A16.41,16.41,0,0,1,90.12,28.53Z"/><g class="cls-2"><path d="M100.7,44.86a39.95,39.95,0,0,1,12.06-12.44,61.57,61.57,0,0,0-25.5-4.7c.73.15,8.89,2,12.2,9.88A16.27,16.27,0,0,1,100.7,44.86Z"/></g><path class="cls-3" d="M99.7,43.86a39.95,39.95,0,0,1,12.06-12.44,61.57,61.57,0,0,0-25.5-4.7c.73.15,8.89,2,12.2,9.88A16.27,16.27,0,0,1,99.7,43.86Z"/><g class="cls-2"><path d="M103.23,62.77a38.67,38.67,0,0,1,6.28-3.52,39.79,39.79,0,0,1,9.78-2.92A61.44,61.44,0,0,0,97.9,41.66c.62.44,7.31,5.45,7.14,14A16.43,16.43,0,0,1,103.23,62.77Z"/></g><path class="cls-3" d="M102.23,61.77a38.67,38.67,0,0,1,6.28-3.52,39.79,39.79,0,0,1,9.78-2.92A61.44,61.44,0,0,0,96.9,40.66c.62.44,7.31,5.45,7.14,14A16.43,16.43,0,0,1,102.23,61.77Z"/><g class="cls-2"><path d="M98.25,80.15a39.58,39.58,0,0,1,17.29.65A61.52,61.52,0,0,0,102,58.7c.38.66,4.46,8,.83,15.69A16.38,16.38,0,0,1,98.25,80.15Z"/></g><path class="cls-3" d="M97.25,79.15a39.58,39.58,0,0,1,17.29.65A61.52,61.52,0,0,0,101,57.7c.38.66,4.46,8,.83,15.69A16.38,16.38,0,0,1,97.25,79.15Z"/></g></g></svg>