<svg xmlns="http://www.w3.org/2000/svg" viewBox="0 0 145.46 145.46"><defs><style>.cls-1{isolation:isolate;}.cls-2{fill:none;}.cls-3{fill:#24c1db;}.cls-4{opacity:0.78;mix-blend-mode:color-dodge;}</style></defs><title>turbine</title><g class="cls-1"><g id="Layer_1" data-name="Layer 1"><circle class="cls-2" cx="72.73" cy="72.73" r="72.73"/><polygon class="cls-3" points="72.72 72.72 135.71 109.09 76.12 85.25 72.72 72.72"/><polygon class="cls-3" points="72.72 72.72 9.74 109.09 60.18 69.4 72.72 72.72"/><polygon class="cls-3" points="72.72 72.72 72.72 0 81.88 63.52 72.72 72.72"/><g class="cls-4"><polygon points="73.72 73.72 136.71 110.09 77.12 86.25 73.72 73.72"/></g><polygon class="cls-3" points="72.72 72.72 135.71 109.09 76.12 85.25 72.72 72.72"/><g class="cls-4"><polygon points="73.72 73.72 10.74 110.09 61.18 70.4 73.72 73.72"/></g><polygon class="cls-3" points="72.72 72.72 9.74 109.09 60.18 69.4 72.72 72.72"/><g class="cls-4"><polygon points="73.72 73.72 73.72 1 82.88 64.52 73.72 73.72"/></g><polygon class="cls-3" points="72.72 72.72 72.72 0 81.88 63.52 72.72 72.72"/></g></g></svg>